<svg width="22" height="22" xmlns="http://www.w3.org/2000/svg" xmlns:xlink="http://www.w3.org/1999/xlink" x="0px" y="0px"
	 viewBox="0 0 946.59 813.18" style="enable-background:new 0 0 946.59 813.18;" xml:space="preserve">
<style type="text/css">
	.st0{stroke:#1AA090;stroke-miterlimit:10;}
</style>
<path style="fill: #1AA090" d="M13.18,368.47v328.47l12.47,12.47h68.47l-3.06-194.82V368.47c0,0-1.41-35.29-37.41-35.65
	C17.65,332.47,13.18,363.18,13.18,368.47z"/>
<path style="fill: #1AA090" d="M221.69,838.12"/>
<path style="fill: #1AA090" d="M343.45,748.33"/>
<path style="fill: #1AA090" d="M94.12,710.12"/>
<path style="fill: #1AA090" d="M92.29,706.15l-66.65,3.26l1.18,1.3h67.46c0-70.36,57.04-127.4,127.4-127.4s127.4,57.04,127.4,127.4
	l-2.04-196.59l-256,0.47l3.06,195.53"/>
<polygon style="fill: #1AA090" points="543.76,514.12 347.06,514.12 349.09,710.71 584.85,710.71 581.62,514.59 "/>
<path style="fill: #1AA090" d="M582.86,706.15l-66.65,3.26l1.18,1.3h67.46c0-70.36,57.04-127.4,127.4-127.4s127.4,57.04,127.4,127.4
	l-2.04-196.59l-256,0.47l3.06,195.53"/>
<path style="fill: #1AA090" d="M839.66,710.71h79.4l12.71-13.65v-70.59c0,0,0.35-19.06-21.53-19.06c-21.88,0-70.57,1.76-70.57,1.76V710.71z"/>
<path style="fill: #1AA090" d="M543.76,514.12V225.88c0,0,1.88-18.35,29.41-26.12l-2.82,314.35H543.76z"/>
<path style="fill: #1AA090" d="M772.94,199.76"/>
<path style="fill: #1AA090" d="M772.94,199.76H574.59l-2.03,68.47l0.61,2.12h150.35c0,0,12.35-1.41,21.18,7.76s74.82,100.24,74.82,100.24H906
	v-7.76c0,0-1.06-4-7.76-13.65c-6.71-9.65-113.65-149.06-113.65-149.06S781.06,202.24,772.94,199.76z"/>
<polygon style="fill: #1AA090" points="626.47,378.35 626.47,270.35 576.53,199.76 573.18,199.76 566.29,214.76 558.47,531.53 626.47,531.53 
	"/>
<polygon style="fill: #1AA090" points="906,378.35 626.47,378.35 626.47,514.51 906,514.12 "/>
<polygon style="fill: #1AA090" points="906,617.16 906,503.99 823.06,503.99 825.53,619.3 "/>
<path style="fill: #1AA090" d="M302.12,409.76L140.82,248.82c0,0-3.71-2.82-2.76-7.71s4.65-8.88,15.82-9.47
	c11.18-0.59,113.65-1.06,113.65-1.06V39.76c0,0,0.47-31.35,34.59-31.35s34.47,30.76,34.47,30.76l2.94,191.18l107.53,0.71
	c0,0,17.18,0.24,18.35,8.47c0,0,1.71,5.82-6.29,14.06C451.12,261.82,302.12,409.76,302.12,409.76z"/>
<path style="fill: #1AA090" d="M312.12,709.92c0,49.36-40.01,89.37-89.37,89.37s-89.37-40.01-89.37-89.37s40.01-89.37,89.37-89.37
	S312.12,660.56,312.12,709.92z M222.75,679.89c-17.02,0-30.82,13.8-30.82,30.82s13.8,30.82,30.82,30.82s30.82-13.8,30.82-30.82
	S239.77,679.89,222.75,679.89z"/>
<path style="fill: #1AA090" d="M801.63,709.41c0,49.36-40.01,89.37-89.37,89.37c-49.36,0-89.37-40.01-89.37-89.37
	c0-49.36,40.01-89.37,89.37-89.37C761.62,620.04,801.63,660.05,801.63,709.41z M712.26,679.38c-17.02,0-30.82,13.8-30.82,30.82
	c0,17.02,13.8,30.82,30.82,30.82c17.02,0,30.82-13.8,30.82-30.82C743.08,693.18,729.28,679.38,712.26,679.38z"/>
<polygon style="fill: #1AA090" points="853.06,591.53 816.71,595.06 837.62,687.91 870,669.53 855.53,591.53 "/>
</svg>
