<svg width="22" height="22" xmlns="http://www.w3.org/2000/svg" xmlns:xlink="http://www.w3.org/1999/xlink" x="0px" y="0px"
	 viewBox="0 0 226.2 177.6" style="enable-background:new 0 0 226.2 177.6;" xml:space="preserve">
<polygon style="fill: #1AA090" points="8.29,101.59 15.82,65.59 45.47,55.35 49.35,84.18 31.59,100.53 31.59,103.94 "/>
<polygon style="fill: #1AA090" points="41.12,104.76 55.12,91.12 72.06,85.12 85.35,111.82 78.41,119.35 51.59,119.35 "/>
<polygon style="fill: #1AA090" points="25.94,135.88 42.53,138.71 69.71,153 69.71,165 27.35,171 21.71,149.29 "/>
<path style="fill: #1AA090" d="M161.29,112.41l7.41,41.03l-20.47,8.91l-44.12-5.65v-27l20.29-32.82L161.29,112.41z M137.12,110.65l9.53,12
	l-0.88,18.18l-17.12,12.62l20.82,2.03l11.82-10.94l-5.65-25.18L137.12,110.65z"/>
<polygon style="fill: #1AA090" points="180.18,129.62 201.71,103.94 222.18,129.62 211.06,135.88 "/>
<polygon style="fill: #1AA090" points="120.18,16.53 117.12,15.12 79,19.94 52.53,12.76 56.18,24.65 71.24,29.94 92.06,26.18 103.82,33.24 "/>
<polygon style="fill: #1AA090" points="88.41,36.53 69.82,36.53 56.18,24.65 52.06,12.18 38.06,36.53 36.06,49.71 49.35,46.29 54.06,49.71 
	66.18,77.35 74.29,74.53 79.71,79.65 89.24,52.76 "/>
<path style="fill: #1AA090" d="M197.47,33.24l13.65,48.47l4,23.53L205.24,93l-6.35-0.24l-26.82,30.82l-1.88-15.06l-5.18-4.59l5.18-5.76
	l-5.41-26.12l-3.47,21.18l-8.53,5.41l-28.24-12.47l-6.35,2.62l-15.53,24.91l-8.71-4.24l-7.59-16.94l12.06-40.24l44-45.41
	L197.47,33.24z M180.18,61.71l11.88,27.09L191.12,61l-22.41-31.76l-20.18,4L180.18,61.71z"/>
<polygon style="fill: #1AA090" points="79.06,19.5 52.53,11.21 51.88,13.68 81.18,20.47 82.48,19.5 "/>
</svg>
