<?xml version="1.0" standalone="no"?>
<!DOCTYPE svg PUBLIC "-//W3C//DTD SVG 20010904//EN"
 "http://www.w3.org/TR/2001/REC-SVG-20010904/DTD/svg10.dtd">
<svg version="1.0" xmlns="http://www.w3.org/2000/svg"
 width="50.000000pt" height="50.000000pt" viewBox="0 0 50.000000 50.000000"
 preserveAspectRatio="xMidYMid meet">

<g transform="translate(0.000000,50.000000) scale(0.100000,-0.100000)"
fill="#000000" stroke="none">
<path d="M108 413 c-27 -7 -22 -26 5 -20 12 4 29 2 37 -3 11 -7 5 -10 -23 -10
-34 0 -38 -3 -35 -22 2 -12 9 -23 16 -26 8 -2 10 2 5 15 -6 17 -6 17 14 0 19
-16 21 -16 37 2 25 28 17 66 -14 68 -14 0 -33 -1 -42 -4z"/>
<path d="M350 411 c0 -6 10 -16 23 -22 12 -7 27 -19 34 -28 7 -9 13 -11 13 -5
0 10 -33 44 -57 58 -7 4 -13 3 -13 -3z"/>
<path d="M317 372 c-23 -25 -22 -34 13 -67 26 -25 33 -27 55 -17 32 15 32 46
0 77 -29 30 -46 31 -68 7z m74 -45 c9 -19 7 -18 -15 5 -17 17 -33 25 -44 22
-14 -5 -14 -4 -3 4 19 13 47 -1 62 -31z"/>
<path d="M196 315 c-18 -18 -22 -55 -6 -55 6 0 10 -5 10 -10 0 -7 -7 -7 -20 0
-16 8 -19 17 -14 33 6 20 5 21 -11 6 -22 -22 -7 -53 34 -67 38 -14 62 8 43 39
-7 10 -12 27 -11 36 0 14 2 13 9 -4 13 -32 32 -29 28 5 -4 32 -37 42 -62 17z"/>
<path d="M245 230 c-11 -17 -26 -28 -32 -25 -17 6 -16 -1 3 -30 9 -14 23 -25
31 -25 11 0 13 4 6 13 -7 8 -6 22 4 42 l14 30 -5 -32 c-6 -34 8 -54 18 -27 11
28 7 84 -6 84 -7 0 -22 -14 -33 -30z"/>
<path d="M341 202 c-16 -30 -9 -102 10 -113 24 -12 35 6 43 74 6 56 6 57 -19
57 -13 0 -29 -8 -34 -18z m16 -44 c-3 -7 -5 -2 -5 12 0 14 2 19 5 13 2 -7 2
-19 0 -25z"/>
<path d="M109 193 c-27 -7 -30 -42 -7 -74 26 -35 32 -36 52 -7 18 25 21 17 6
-13 -12 -21 -1 -26 18 -7 22 22 14 63 -18 86 -16 12 -30 21 -32 21 -2 -1 -10
-3 -19 -6z m40 -26 c8 -11 4 -13 -20 -9 -22 3 -27 7 -18 13 19 12 25 11 38 -4z"/>
<path d="M401 150 c0 -29 1 -32 10 -17 7 11 7 23 0 35 -9 14 -10 11 -10 -18z"/>
</g>
</svg>
